<svg xmlns="http://www.w3.org/2000/svg" viewBox="0 0 48 48"><path d="M36.371,15.75v-.956a.5.5,0,0,1,1,0v.956a.5.5,0,0,1-1,0ZM6.2,27.376a.5.5,0,0,0,.5-.5v-1.6a.5.5,0,0,0-1,0v1.6A.5.5,0,0,0,6.2,27.376ZM38.056,14.1h.31a.5.5,0,0,0,0-1h-.31a.5.5,0,0,0,0,1ZM5.012,27.576h-.8a.5.5,0,1,0,0,1h.8a.5.5,0,1,0,0-1ZM35.366,14.1h.31a.5.5,0,0,0,0-1h-.31a.5.5,0,0,0,0,1ZM6.711,30.856v-1.6a.5.5,0,0,0-1,0v1.6a.5.5,0,0,0,1,0Zm30.16-17.949a.5.5,0,0,0,.5-.5v-.956a.5.5,0,0,0-1,0v.956A.5.5,0,0,0,36.871,12.907ZM6.7,36.049a.5.5,0,1,0,.5.5A.5.5,0,0,0,6.7,36.049Zm1.488-8.488H7.4a.5.5,0,0,0,0,1h.8a.5.5,0,0,0,0-1Zm28.151,6.418a.5.5,0,1,0,.5.5A.5.5,0,0,0,36.343,33.979Zm7.942,2.57a.5.5,0,0,1-.5.5H9.207a.5.5,0,0,1,0-1h5.157a2.538,2.538,0,0,1-.5-1.07H11.615a1.591,1.591,0,0,1-1.59-1.589V18.136a1.591,1.591,0,0,1,1.59-1.589H31.739a1.591,1.591,0,0,1,1.59,1.589V19.55h.958v-.418a1.417,1.417,0,1,1,2.834,0v.418h.918a2.349,2.349,0,0,1,2.082,1.276l3.014,5.919a2.4,2.4,0,0,1,.247,1.06v5.759a1.416,1.416,0,0,1-1.416,1.415h-3.1a2.551,2.551,0,0,1-.5,1.07h5.422A.5.5,0,0,1,44.285,36.549ZM35.49,22.454v3.752h6.249l-1.911-3.752Zm-.2-2.9h.834v-.418a.417.417,0,1,0-.834,0ZM17.954,34.479l0-.008a1.571,1.571,0,0,0-3.142,0l0,.01,0,.009a1.571,1.571,0,0,0,3.142,0Zm.952-.5H32.329V18.136a.59.59,0,0,0-.59-.589H11.615a.59.59,0,0,0-.59.589V33.39a.59.59,0,0,0,.59.589h2.248a2.57,2.57,0,0,1,5.043,0Zm15.416,2.07a2.55,2.55,0,0,1-.5-1.07h-.993c-.013,0-.024-.006-.037-.007s-.023.007-.036.007H18.906a2.551,2.551,0,0,1-.5,1.07Zm3.593-1.572a1.572,1.572,0,0,0-3.143-.013l0,.015,0,.014a1.571,1.571,0,0,0,3.141-.013h0v0Zm.949-.5h3.1a.411.411,0,0,0,.416-.415V27.805a1.4,1.4,0,0,0-.137-.6H34.99a.5.5,0,0,1-.5-.5V21.954a.5.5,0,0,1,.5-.5h4.328l-.086-.17a1.351,1.351,0,0,0-1.193-.734h-4.71V33.979h.492a2.57,2.57,0,0,1,5.043,0Zm1.511-1.32h1.234a.5.5,0,0,0,0-1H40.375a.5.5,0,0,0,0,1ZM19.623,27.817H17.762a.5.5,0,0,1-.5-.5V24.209a.5.5,0,0,1,.5-.5h1.861V21.848a.5.5,0,0,1,.5-.5h3.108a.5.5,0,0,1,.5.5v1.861h1.861a.5.5,0,0,1,.5.5v3.108a.5.5,0,0,1-.5.5H23.731v1.861a.5.5,0,0,1-.5.5H20.123a.5.5,0,0,1-.5-.5Zm.5-1a.5.5,0,0,1,.5.5v1.861h2.108V27.317a.5.5,0,0,1,.5-.5h1.861V24.709H23.231a.5.5,0,0,1-.5-.5V22.348H20.623v1.861a.5.5,0,0,1-.5.5H18.262v2.108Zm-3.738,7.16a.5.5,0,1,0,.5.5A.5.5,0,0,0,16.385,33.977Z"/></svg>