<svg xmlns="http://www.w3.org/2000/svg" viewBox="0 0 32 32"><g data-name="Layer 15"><path d="M29.38,10.46a.5.5,0,0,0-.5.5v1.65H23.71a4.08,4.08,0,0,0-4.07,4H3.12V14.13a.51.51,0,0,0-.5-.5.5.5,0,0,0-.5.5V25.5a.5.5,0,0,0,.5.5.5.5,0,0,0,.5-.5V23.19H28.88V25.5a.5.5,0,0,0,.5.5.5.5,0,0,0,.5-.5V11A.5.5,0,0,0,29.38,10.46Zm-.66,11.73H3.28V17.57H28.72Zm.16-5.62H20.63a3.08,3.08,0,0,1,3.08-3h5.17Z"/><path d="M13.36,9.64H15.5v2.15a.5.5,0,0,0,1,0V9.64h2.14a.5.5,0,0,0,.5-.5.5.5,0,0,0-.5-.5H16.5V6.5a.5.5,0,0,0-1,0V8.64H13.36a.5.5,0,0,0-.5.5A.5.5,0,0,0,13.36,9.64Z"/></g></svg>